
<svg xmlns="http://www.w3.org/2000/svg">


	
	<!-- Иконка корзина -->
	<symbol viewBox="0 0 32 32" id="basket-1">
		<path d="M13.2 12.25C12.3992 12.25 11.75 12.8992 11.75 13.7C11.75 14.5008 12.3992 15.15 13.2 15.15H21.2C22.0008 15.15 22.65 14.5008 22.65 13.7C22.65 12.8992 22.0008 12.25 21.2 12.25H13.2Z"/>
		<path fill-rule="evenodd" clip-rule="evenodd" d="M27.5834 8.00716L27.5909 8.01712C27.9376 8.47664 28.0926 9.05262 28.0236 9.62407L28.0221 9.63376L26.504 18.5178C26.4435 18.9616 26.2273 19.3694 25.8937 19.6684C25.5593 19.9683 25.1289 20.139 24.6799 20.15L24.675 20.1501H10.6637L10.7405 20.9563C11.3348 21.0573 11.8948 21.3071 12.3678 21.6836C12.8462 22.0643 13.2183 22.5608 13.4495 23.1251H19.1398C19.4087 22.4895 19.8511 21.9412 20.4175 21.5437C21.022 21.1196 21.7398 20.8866 22.4781 20.8751L22.4812 20.875C23.4294 20.8751 24.3387 21.2517 25.0092 21.9222C25.6796 22.5926 26.0562 23.5019 26.0562 24.4501C26.0562 25.3982 25.6796 26.3075 25.0092 26.978C24.3387 27.6484 23.4294 28.0251 22.4812 28.0251L22.4781 28.025C21.7398 28.0135 21.022 27.7806 20.4175 27.3564C19.8511 26.9589 19.4087 26.4106 19.1398 25.7751H13.4477C13.1788 26.4106 12.7364 26.9589 12.17 27.3564C11.5655 27.7806 10.8477 28.0135 10.1094 28.025L10.1062 28.0251C9.1581 28.0251 8.24879 27.6484 7.57834 26.978C6.90797 26.3076 6.53133 25.3984 6.53125 24.4504C6.52927 23.8367 6.68782 23.2332 6.99117 22.6997C7.27287 22.2043 7.67035 21.7853 8.14881 21.4781L6.38488 6.65007H5.325C4.97359 6.65007 4.63657 6.51047 4.38808 6.26198C4.1396 6.0135 4 5.67648 4 5.32507C4 4.97366 4.1396 4.63664 4.38808 4.38815C4.63657 4.13967 4.97359 4.00007 5.325 4.00007H7.06788C7.52746 3.99619 7.97267 4.16012 8.31999 4.46114C8.66754 4.76235 8.89316 5.1801 8.95446 5.63591L8.95488 5.6392L9.1591 7.37507H26.1375L26.1416 7.37511C26.6827 7.38611 27.1976 7.61 27.5747 7.99821L27.5834 8.00716ZM10.8754 24.964C10.977 24.8119 11.0312 24.633 11.0312 24.4501C11.0312 24.2047 10.9338 23.9695 10.7603 23.796C10.5869 23.6225 10.3516 23.5251 10.1062 23.5251C9.9233 23.5251 9.74446 23.5793 9.59235 23.681C9.44023 23.7826 9.32167 23.9271 9.25166 24.0961C9.18165 24.2651 9.16333 24.4511 9.19902 24.6305C9.23471 24.81 9.32281 24.9748 9.45218 25.1041C9.58154 25.2335 9.74636 25.3216 9.92579 25.3573C10.1052 25.393 10.2912 25.3747 10.4602 25.3047C10.6293 25.2346 10.7737 25.1161 10.8754 24.964ZM23.9989 17.5001L25.227 10.0251H9.48666L10.3409 17.5001H23.9989ZM23.4062 24.4501C23.4062 24.633 23.352 24.8119 23.2504 24.964C23.1487 25.1161 23.0043 25.2346 22.8352 25.3047C22.6662 25.3747 22.4802 25.393 22.3008 25.3573C22.1214 25.3216 21.9565 25.2335 21.8272 25.1041C21.6978 24.9748 21.6097 24.81 21.574 24.6305C21.5383 24.4511 21.5566 24.2651 21.6267 24.0961C21.6967 23.9271 21.8152 23.7826 21.9673 23.681C22.1195 23.5793 22.2983 23.5251 22.4812 23.5251C22.7266 23.5251 22.9619 23.6225 23.1353 23.796C23.3088 23.9695 23.4062 24.2047 23.4062 24.4501Z"/>
	</symbol>

	
	


	

</svg>
