<svg xmlns="http://www.w3.org/2000/svg">
	<!-- Иконка корзина -->
	<symbol viewBox="0 0 25 21" id="menu-1" fill="none">
		<rect x="0.5" y="0.5" width="24" height="2" stroke="#417A82"/>
		<rect x="2.5" y="5.5" width="20" height="3" stroke="#417A82"/>
		<rect x="2.5" y="8.5" width="20" height="3" stroke="#417A82"/>
		<rect x="2.5" y="11.5" width="20" height="3" stroke="#417A82"/>
		<rect x="2.5" y="14.5" width="20" height="3" stroke="#417A82"/>
		<rect x="2.5" y="17.5" width="20" height="3" stroke="#417A82"/>
		<path d="M4.5 2L4.5 6" stroke="#417A82"/>
		<line x1="4.5" y1="6" x2="4.5" y2="7" stroke="#417A82"/>
		<line x1="4.5" y1="9" x2="4.5" y2="10" stroke="#417A82"/>
		<line x1="4.5" y1="11.0454" x2="4.5" y2="11.7992" stroke="#417A82"/>
		<line x1="4.5" y1="14.0605" x2="4.5" y2="14.8143" stroke="#417A82"/>
		<line x1="4.5" y1="18" x2="4.5" y2="19" stroke="#417A82"/>
		<line x1="4.5" y1="15" x2="4.5" y2="16" stroke="#417A82"/>
		<line x1="4.5" y1="12" x2="4.5" y2="13" stroke="#417A82"/>
		<path d="M20.4998 2L20.4998 5.5" stroke="#417A82"/>
		<line x1="20.4998" y1="6" x2="20.4998" y2="7" stroke="#417A82"/>
		<line x1="20.4998" y1="9" x2="20.4998" y2="10" stroke="#417A82"/>
		<line x1="20.4998" y1="18" x2="20.4998" y2="19" stroke="#417A82"/>
		<line x1="20.4998" y1="15" x2="20.4998" y2="16" stroke="#417A82"/>
		<line x1="20.4998" y1="12" x2="20.4998" y2="13" stroke="#417A82"/>
	</symbol>
	
	<symbol viewBox="0 0 23 26" id="menu-2" fill="none">
		<rect x="0.500366" y="0.5" width="22" height="4" rx="2" stroke="#417A82"/>
		<circle cx="2.50037" cy="2.5" r="2" stroke="#417A82"/>
		<path fill-rule="evenodd" clip-rule="evenodd" d="M0.20907 2.5H0V23.5V24H0.5H20.5H21V23.5V4.5H20V23H1V3.15423C0.666262 3.03512 0.386854 2.80124 0.20907 2.5Z" fill="#417A82"/>
		<line x1="10.5" y1="24" x2="10.5" y2="26" stroke="#417A82"/>
		<line x1="1" y1="20.5" x2="20.598" y2="20.5" stroke="#417A82"/>
	</symbol>
	
	
	<symbol viewBox="0 0 21 24" id="menu-3" fill="none">
		<rect x="0.5" y="0.5" width="20" height="23" stroke="#417A82"/>
		<rect x="2.5" y="2.5" width="16" height="19" stroke="#417A82"/>
		<line x1="5.5" y1="7" x2="5.5" y2="18" stroke="#417A82"/>
		<line x1="14.5" y1="7" x2="14.5" y2="18" stroke="#417A82"/>
		<line x1="4" y1="11.5" x2="2" y2="11.5" stroke="#417A82"/>
		<line x1="4" y1="8.5" x2="2" y2="8.5" stroke="#417A82"/>
		<line x1="18" y1="8.5" x2="15" y2="8.5" stroke="#417A82"/>
		<line x1="18" y1="11.5" x2="15" y2="11.5" stroke="#417A82"/>
		<line x1="8.5" y1="3" x2="8.5" y2="11" stroke="#417A82"/>
		<line x1="11.5" y1="3" x2="11.5" y2="18" stroke="#417A82"/>
		<line x1="8.5" y1="13" x2="8.5" y2="20" stroke="#417A82"/>
	</symbol>
	
	
	<symbol viewBox="0 0 25 22" id="menu-4" fill="none">
		<path d="M22.3864 2.5L21.5212 5.35547L21.4753 5.50684L21.5261 5.6582L22.4733 8.5L21.4733 11.5L22.4733 14.5L21.4763 17.4912L21.5212 17.6426L22.3903 20.5752H2.62177L3.48016 17.6406L3.52411 17.4902L3.4743 17.3418L2.52704 14.5L3.52704 11.5L2.52704 8.5L3.4743 5.6582L3.52411 5.50781L3.47919 5.35645L2.62665 2.5H22.3864Z" stroke="#417A82"/>
		<rect x="0.5" y="0.5" width="24" height="2" stroke="#417A82"/>
		<path d="M3 5.5L21.5 5.5" stroke="#417A82"/>
		<path d="M3.5 11.5L21.5 11.5" stroke="#417A82"/>
		<line x1="2.7085" y1="14.5" x2="22.3065" y2="14.5" stroke="#417A82"/>
		<line x1="2.70856" y1="20.5752" x2="22.3065" y2="20.5752" stroke="#417A82"/>
		<line x1="3" y1="8.5" x2="22.598" y2="8.5" stroke="#417A82"/>
		<path d="M3.5 17.5L21.5 17.5" stroke="#417A82"/>
	</symbol>
	
	<symbol viewBox="0 0 25 26" id="menu-5" fill="none">
		<path d="M2.98145 16.5249H4.69727C5.36531 16.5249 5.92462 17.0311 5.99121 17.6958L6.39648 21.7446C6.54776 23.2574 5.35915 24.5698 3.83887 24.5698C2.31876 24.5696 1.13096 23.2572 1.28223 21.7446L1.6875 17.6958C1.7541 17.0311 2.31338 16.5249 2.98145 16.5249Z" stroke="#417A82"/>
		<circle cx="3.83921" cy="19.4173" r="1.13065" fill="#417A82"/>
		<rect x="0.5" y="0.5" width="24" height="2" stroke="#417A82"/>
		<path d="M22.5151 3L22.5151 22" stroke="#417A82"/>
		<path d="M17.5302 5L17.5302 20" stroke="#417A82"/>
		<line x1="14.5" y1="5" x2="14.5" y2="20.0754" stroke="#417A82"/>
		<line x1="11.5" y1="5" x2="11.5" y2="20.0754" stroke="#417A82"/>
		<path d="M8.5 5L8.5 19.0402" stroke="#417A82"/>
		<path d="M5.5 5L5.5 15" stroke="#417A82"/>
		<path d="M2.50012 14.9221V4.5H20.4221V21.5H8.00012" stroke="#417A82"/>
	</symbol>
	
	<symbol viewBox="0 0 25 23" id="menu-5" fill="none">
		<rect x="0.5" y="20.5" width="24" height="2" stroke="#417A82"/>
		<rect x="2.5" y="18.5" width="20" height="2" stroke="#417A82"/>
		<path d="M22.6543 2.5L24.459 7.31445C24.4421 7.34916 24.4249 7.39011 24.4014 7.43359C24.3056 7.61059 24.1569 7.84729 23.9453 8.08203C23.5269 8.54619 22.8719 9 21.875 9C20.9072 9 20.2565 8.49201 19.8271 7.94238C19.612 7.66696 19.4598 7.38876 19.3613 7.17871C19.3124 7.07429 19.2779 6.98774 19.2559 6.92969C19.2449 6.90082 19.2371 6.87882 19.2324 6.86523C19.2301 6.8586 19.2284 6.85406 19.2275 6.85156L19.2266 6.85059H18.2734L18.2725 6.85156C18.2716 6.85406 18.2699 6.8586 18.2676 6.86523C18.2629 6.87882 18.2551 6.90082 18.2441 6.92969C18.2221 6.98774 18.1876 7.07429 18.1387 7.17871C18.0402 7.38876 17.888 7.66696 17.6729 7.94238C17.2435 8.49201 16.5928 9 15.625 9C14.6572 9 14.0065 8.49201 13.5771 7.94238C13.362 7.66696 13.2098 7.38876 13.1113 7.17871C13.0624 7.07429 13.0279 6.98774 13.0059 6.92969C12.9949 6.90082 12.9871 6.87882 12.9824 6.86523C12.9801 6.8586 12.9784 6.85406 12.9775 6.85156L12.9766 6.85059H12.0234L12.0225 6.85156C12.0216 6.85406 12.0199 6.8586 12.0176 6.86523C12.0129 6.87882 12.0051 6.90082 11.9941 6.92969C11.9721 6.98774 11.9376 7.07429 11.8887 7.17871C11.7902 7.38876 11.638 7.66696 11.4229 7.94238C10.9935 8.49201 10.3428 9 9.375 9C8.40718 9 7.75655 8.49201 7.32715 7.94238C7.11199 7.66696 6.9598 7.38876 6.86133 7.17871C6.81238 7.07429 6.77789 6.98774 6.75586 6.92969C6.74491 6.90082 6.73709 6.87882 6.73242 6.86523C6.73014 6.8586 6.72836 6.85406 6.72754 6.85156L6.72656 6.85059H5.77344L5.77246 6.85156C5.77164 6.85406 5.76986 6.8586 5.76758 6.86523C5.76291 6.87882 5.75509 6.90082 5.74414 6.92969C5.72211 6.98774 5.68762 7.07429 5.63867 7.17871C5.5402 7.38876 5.38801 7.66696 5.17285 7.94238C4.74345 8.49201 4.09282 9 3.125 9C2.12814 9 1.4731 8.54619 1.05469 8.08203C0.843093 7.84729 0.694362 7.61059 0.598633 7.43359C0.575033 7.38995 0.55694 7.34925 0.540039 7.31445L2.3457 2.5H22.6543Z" stroke="#417A82" stroke-linejoin="bevel"/>
		<line x1="2.5" y1="9" x2="2.5" y2="18" stroke="#417A82"/>
		<line x1="22.5" y1="9" x2="22.5" y2="18" stroke="#417A82"/>
		<rect x="2.5" y="0.5" width="20" height="2" stroke="#417A82"/>
		<line x1="1" y1="6.5" x2="24" y2="6.5" stroke="#417A82"/>
	</symbol>
	
	<symbol viewBox="0 0 25 23" id="menu-6" fill="none">
		<rect x="0.5" y="20.5" width="24" height="2" stroke="#417A82"/>
		<rect x="2.5" y="18.5" width="20" height="2" stroke="#417A82"/>
		<path d="M22.6543 2.5L24.459 7.31445C24.4421 7.34916 24.4249 7.39011 24.4014 7.43359C24.3056 7.61059 24.1569 7.84729 23.9453 8.08203C23.5269 8.54619 22.8719 9 21.875 9C20.9072 9 20.2565 8.49201 19.8271 7.94238C19.612 7.66696 19.4598 7.38876 19.3613 7.17871C19.3124 7.07429 19.2779 6.98774 19.2559 6.92969C19.2449 6.90082 19.2371 6.87882 19.2324 6.86523C19.2301 6.8586 19.2284 6.85406 19.2275 6.85156L19.2266 6.85059H18.2734L18.2725 6.85156C18.2716 6.85406 18.2699 6.8586 18.2676 6.86523C18.2629 6.87882 18.2551 6.90082 18.2441 6.92969C18.2221 6.98774 18.1876 7.07429 18.1387 7.17871C18.0402 7.38876 17.888 7.66696 17.6729 7.94238C17.2435 8.49201 16.5928 9 15.625 9C14.6572 9 14.0065 8.49201 13.5771 7.94238C13.362 7.66696 13.2098 7.38876 13.1113 7.17871C13.0624 7.07429 13.0279 6.98774 13.0059 6.92969C12.9949 6.90082 12.9871 6.87882 12.9824 6.86523C12.9801 6.8586 12.9784 6.85406 12.9775 6.85156L12.9766 6.85059H12.0234L12.0225 6.85156C12.0216 6.85406 12.0199 6.8586 12.0176 6.86523C12.0129 6.87882 12.0051 6.90082 11.9941 6.92969C11.9721 6.98774 11.9376 7.07429 11.8887 7.17871C11.7902 7.38876 11.638 7.66696 11.4229 7.94238C10.9935 8.49201 10.3428 9 9.375 9C8.40718 9 7.75655 8.49201 7.32715 7.94238C7.11199 7.66696 6.9598 7.38876 6.86133 7.17871C6.81238 7.07429 6.77789 6.98774 6.75586 6.92969C6.74491 6.90082 6.73709 6.87882 6.73242 6.86523C6.73014 6.8586 6.72836 6.85406 6.72754 6.85156L6.72656 6.85059H5.77344L5.77246 6.85156C5.77164 6.85406 5.76986 6.8586 5.76758 6.86523C5.76291 6.87882 5.75509 6.90082 5.74414 6.92969C5.72211 6.98774 5.68762 7.07429 5.63867 7.17871C5.5402 7.38876 5.38801 7.66696 5.17285 7.94238C4.74345 8.49201 4.09282 9 3.125 9C2.12814 9 1.4731 8.54619 1.05469 8.08203C0.843093 7.84729 0.694362 7.61059 0.598633 7.43359C0.575033 7.38995 0.55694 7.34925 0.540039 7.31445L2.3457 2.5H22.6543Z" stroke="#417A82" stroke-linejoin="bevel"/>
		<line x1="2.5" y1="9" x2="2.5" y2="18" stroke="#417A82"/>
		<line x1="22.5" y1="9" x2="22.5" y2="18" stroke="#417A82"/>
		<rect x="2.5" y="0.5" width="20" height="2" stroke="#417A82"/>
		<line x1="1" y1="6.5" x2="24" y2="6.5" stroke="#417A82"/>
	</symbol>
	
	
	<symbol viewBox="0 0 27 27" id="menu-7" fill="none">
		<rect x="2.49994" y="0.5" width="24" height="2" stroke="#417A82"/>
		<path d="M24.4999 2.5V22.5H4.49994V2.5H24.4999Z" stroke="#417A82"/>
		<mask id="path-3-inside-1_0_692" fill="white">
			<path d="M4 14C4.52529 14 5.04543 13.8836 5.53073 13.6575C6.01604 13.4313 6.45699 13.0998 6.82843 12.682C7.19986 12.2641 7.4945 11.768 7.69552 11.2221C7.89654 10.6761 8 10.0909 8 9.5C8 8.90905 7.89654 8.32389 7.69552 7.77792C7.4945 7.23196 7.19986 6.73588 6.82843 6.31802C6.45699 5.90016 6.01604 5.56869 5.53073 5.34254C5.04543 5.1164 4.52529 5 4 5L4 9.5L4 14Z"/>
		</mask>
		<path d="M4 14C4.52529 14 5.04543 13.8836 5.53073 13.6575C6.01604 13.4313 6.45699 13.0998 6.82843 12.682C7.19986 12.2641 7.4945 11.768 7.69552 11.2221C7.89654 10.6761 8 10.0909 8 9.5C8 8.90905 7.89654 8.32389 7.69552 7.77792C7.4945 7.23196 7.19986 6.73588 6.82843 6.31802C6.45699 5.90016 6.01604 5.56869 5.53073 5.34254C5.04543 5.1164 4.52529 5 4 5L4 9.5L4 14Z" stroke="#417A82" stroke-width="2" mask="url(#path-3-inside-1_0_692)"/>
		<mask id="path-4-inside-2_0_692" fill="white">
			<path d="M23 23C23 22.4747 22.8836 21.9546 22.6575 21.4693C22.4313 20.984 22.0998 20.543 21.682 20.1716C21.2641 19.8001 20.768 19.5055 20.2221 19.3045C19.6761 19.1035 19.0909 19 18.5 19C17.9091 19 17.3239 19.1035 16.7779 19.3045C16.232 19.5055 15.7359 19.8001 15.318 20.1716C14.9002 20.543 14.5687 20.984 14.3425 21.4693C14.1164 21.9546 14 22.4747 14 23L18.5 23H23Z"/>
		</mask>
		<path d="M23 23C23 22.4747 22.8836 21.9546 22.6575 21.4693C22.4313 20.984 22.0998 20.543 21.682 20.1716C21.2641 19.8001 20.768 19.5055 20.2221 19.3045C19.6761 19.1035 19.0909 19 18.5 19C17.9091 19 17.3239 19.1035 16.7779 19.3045C16.232 19.5055 15.7359 19.8001 15.318 20.1716C14.9002 20.543 14.5687 20.984 14.3425 21.4693C14.1164 21.9546 14 22.4747 14 23L18.5 23H23Z" stroke="#417A82" stroke-width="2" mask="url(#path-4-inside-2_0_692)"/>
		<circle cx="20.5" cy="6.5" r="2" stroke="#417A82"/>
		<circle cx="8.5" cy="18.5" r="2" stroke="#417A82"/>
		<circle cx="16.5" cy="13.5" r="3" stroke="#417A82"/>
		<line x1="12.5" y1="3" x2="12.5" y2="22" stroke="#417A82"/>
		<line x1="16.5" y1="3" x2="16.5" y2="22" stroke="#417A82"/>
		<line x1="20.5" y1="3" x2="20.5" y2="22" stroke="#417A82"/>
		<line x1="8.5" y1="3" x2="8.5" y2="22" stroke="#417A82"/>
	</symbol>
	
	<symbol viewBox="0 0 23 22" id="menu-8" fill="none">
		<path d="M17.5762 16.3291L17.9727 17.75L17.5146 21.3594H8.89746L8.43848 17.75L8.83594 16.3291H17.5762Z" stroke="#417A82"/>
		<line x1="8.19092" y1="18.3191" x2="18.1909" y2="18.3191" stroke="#417A82"/>
		<path d="M15.6909 9.68579V16.3186H10.6909V8.68286L15.6909 9.68579Z" stroke="#417A82"/>
		<path d="M7.7075 1.76917L18.4825 3.92373C20.1584 4.25885 21.2454 5.88927 20.9103 7.56519C20.5751 9.24104 18.9447 10.3281 17.2689 9.99303L6.49388 7.83847C5.68162 7.67605 5.15484 6.88573 5.31712 6.07347L5.9425 2.94593C6.10493 2.13359 6.89515 1.60673 7.7075 1.76917Z" stroke="#417A82"/>
		<line x1="19.5109" y1="4.28603" x2="18.3575" y2="10.0539" stroke="#417A82"/>
		<line x1="7.96271" y1="1.92128" x2="6.68121" y2="8.33004" stroke="#417A82"/>
		<path d="M5.23417 2.60755L5.97057 2.7548L5.26955 6.26059L4.53315 6.11334C3.72089 5.95092 3.19411 5.1606 3.35639 4.34834L3.46917 3.78431C3.63161 2.97197 4.42183 2.44511 5.23417 2.60755Z" stroke="#417A82"/>
		<line x1="3.62742" y1="4.28595" x2="0.670877" y2="3.69476" stroke="#417A82"/>
	</symbol>
	
	<symbol viewBox="0 0 22 22" id="menu-9" fill="none">
		<path d="M12.5195 2.36816L12.7031 2.52734L12.9424 2.48145L15.4971 1.98633L16.3486 4.44824L16.4277 4.67773L16.6572 4.75781L19.1182 5.60742L18.624 8.16406L18.5781 8.40234L18.7373 8.58594L20.4424 10.5527L18.7373 12.5195L18.5781 12.7031L18.624 12.9424L19.1182 15.4971L16.6572 16.3486L16.4277 16.4277L16.3486 16.6572L15.4971 19.1182L12.9424 18.624L12.7031 18.5781L12.5195 18.7373L10.5527 20.4424L8.58594 18.7373L8.40234 18.5781L8.16406 18.624L5.60742 19.1182L4.75781 16.6572L4.67773 16.4277L4.44824 16.3486L1.98633 15.4971L2.48145 12.9424L2.52734 12.7031L2.36816 12.5195L0.662109 10.5527L2.36816 8.58594L2.52734 8.40234L2.48145 8.16406L1.98633 5.60742L4.44824 4.75781L4.67773 4.67773L4.75781 4.44824L5.60742 1.98633L8.16406 2.48145L8.40234 2.52734L8.58594 2.36816L10.5527 0.662109L12.5195 2.36816Z" stroke="#417A82"/>
		<circle cx="10.5527" cy="10.5529" r="5.53015" stroke="#417A82"/>
	</symbol>
	
	<symbol viewBox="0 0 23 23" id="menu-10" fill="none">
		<rect x="0.5" y="0.5" width="22" height="22" rx="3.5" stroke="#B84C74"/>
		<line x1="13.0176" y1="14.363" x2="18.1031" y2="14.363" stroke="#B84C74"/>
		<line x1="13.0176" y1="7.24341" x2="18.1031" y2="7.24341" stroke="#B84C74"/>
		<path d="M4.88086 12.7034L9.69467 17.5173" stroke="#B84C74"/>
		<line x1="4.88086" y1="7.24341" x2="9.96642" y2="7.24341" stroke="#B84C74"/>
		<line x1="7.43213" y1="9.77734" x2="7.43213" y2="4.69179" stroke="#B84C74"/>
		<path d="M4.88086 17.5173L9.69476 12.7034" stroke="#B84C74"/>
		<line x1="13.0176" y1="16.3972" x2="18.1031" y2="16.3972" stroke="#B84C74"/>
	</symbol>
	
	<symbol viewBox="0 0 29 23" id="bsk-11" fill="none">
		<path d="M11.9149 4.66147H28L26.2128 14.7679H10.7234L5.95745 0.5H0" stroke="#417A82" stroke-linejoin="round"/>
		<path d="M13.1057 18.2466C14.1465 18.2466 14.9884 19.0883 14.9885 20.1245C14.9885 21.1609 14.1466 22.0034 13.1057 22.0034C12.0649 22.0033 11.2229 21.1608 11.2229 20.1245C11.2231 19.0883 12.065 18.2467 13.1057 18.2466Z" stroke="#417A82"/>
		<path d="M23.8301 18.2466C24.8709 18.2466 25.7127 19.0883 25.7129 20.1245C25.7129 21.1609 24.871 22.0034 23.8301 22.0034C22.7893 22.0033 21.9473 21.1608 21.9473 20.1245C21.9474 19.0883 22.7894 18.2467 23.8301 18.2466Z" stroke="#417A82"/>
	</symbol>
	
	<symbol viewBox="0 0 17 19" id="search-12" fill="none">
		<circle cx="7" cy="7" r="6.5" transform="matrix(-1 0 0 1 14 0)" stroke="#417A82"/>
		<path d="M12.5 14L16 18.5" stroke="#417A82"/>
	</symbol>


	
		
	

	




	

</svg>
